<svg height="512pt" fill="white" viewBox="0 -56 512 512" width="512pt" xmlns="http://www.w3.org/2000/svg"><path d="m256 336c-61.757812 0-112-50.242188-112-112s50.242188-112 112-112 112 50.242188 112 112-50.242188 112-112 112zm0-192c-44.109375 0-80 35.890625-80 80s35.890625 80 80 80 80-35.890625 80-80-35.890625-80-80-80zm0 0"/><path d="m208 240c-8.835938 0-16-7.164062-16-16 0-35.289062 28.710938-64 64-64 8.835938 0 16 7.164062 16 16s-7.164062 16-16 16c-17.648438 0-32 14.351562-32 32 0 8.835938-7.164062 16-16 16zm0 0"/><path d="m453.5625 64h-59.671875l-27.578125-55.15625c-2.710938-5.421875-8.25-8.84375-14.3125-8.84375h-192c-6.0625 0-11.601562 3.421875-14.3125 8.84375l-27.578125 55.15625h-59.671875c-32.21875 0-58.4375 26.21875-58.4375 58.4375v203.125c0 29.632812 23.304688 74.4375 58.4375 74.4375h395.125c35.132812 0 58.4375-44.804688 58.4375-74.4375v-203.125c0-32.21875-26.21875-58.4375-58.4375-58.4375zm26.4375 261.5625c0 17.84375-15.320312 42.4375-26.4375 42.4375h-395.125c-11.117188 0-26.4375-24.59375-26.4375-42.4375v-203.125c0-14.578125 11.859375-26.4375 26.4375-26.4375h235.882812c8.835938 0 16-7.164062 16-16s-7.164062-16-16-16h-140.429687l16-32h172.21875l27.578125 55.15625c.757812 1.519531 1.753906 2.824219 2.875 3.976562.214844.222657.480469.367188.710938.578126 1.15625 1.054687 2.429687 1.90625 3.816406 2.574218.464844.226563.910156.421875 1.398437.601563 1.757813.652343 3.582031 1.101562 5.476563 1.105469.011718 0 .023437.007812.035156.007812h69.5625c14.578125 0 26.4375 11.859375 26.4375 26.4375zm0 0"/></svg>