<svg height="512pt" fill="white" viewBox="0 -26 512 512" width="512pt" xmlns="http://www.w3.org/2000/svg"><path d="m448.871094 340.300781-38.183594 38.183594-15.558594-15.554687c-3.902344-3.90625-10.234375-3.90625-14.140625 0s-3.90625 10.238281 0 14.140624l22.628907 22.628907c1.875 1.875 4.417968 2.925781 7.070312 2.925781s5.195312-1.050781 7.070312-2.925781l45.253907-45.257813c3.90625-3.902344 3.90625-10.234375 0-14.140625s-10.238281-3.90625-14.140625 0zm0 0"/><path d="m422 280c-6.21875 0-12.296875.632812-18.167969 1.84375v-74.199219l51.167969-29.539062c3.09375-1.789063 5-5.089844 5-8.660157 0-3.574218-1.90625-6.875-5-8.660156l-41.167969-23.765625 41.167969-23.769531c3.09375-1.785156 5-5.085938 5-8.660156 0-3.570313-1.90625-6.871094-5-8.660156l-163.835938-94.589844c-3.09375-1.785156-6.90625-1.785156-10 0l-51.164062 29.539062-51.164062-29.539062c-3.09375-1.785156-6.90625-1.785156-10 0l-77.234376 44.589844c-4.78125 2.761718-6.421874 8.875-3.660156 13.660156 2.761719 4.78125 8.878906 6.417968 13.660156 3.660156l72.234376-41.703125 36.164062 20.878906-143.835938 83.046875-36.164062-20.882812 11.875-6.855469c4.785156-2.761719 6.421875-8.878906 3.660156-13.660156-2.757812-4.785157-8.875-6.421875-13.660156-3.660157l-26.875 15.515626c-3.09375 1.789062-5 5.089843-5 8.660156 0 3.574218 1.90625 6.875 5 8.660156l41.164062 23.769531-41.164062 23.765625c-3.09375 1.785156-5 5.085938-5 8.660156 0 3.570313 1.90625 6.871094 5 8.660157l51.164062 29.539062v118.550781c0 3.574219 1.90625 6.875 5 8.660157l163.835938 94.59375c.023438.011719.050781.023437.074219.035156.355469.203125.722656.386719 1.101562.542969.023438.011718.046875.015625.066407.027344.34375.136718.699218.253906 1.0625.355468.097656.027344.195312.050782.292968.074219.296875.074219.597656.132813.90625.179687.101563.015626.203125.035157.304688.046876.390625.046874.789062.078124 1.191406.078124s.796875-.03125 1.1875-.078124c.105469-.011719.203125-.03125.308594-.046876.304687-.046874.605468-.105468.902344-.179687.097656-.023437.195312-.046875.292968-.074219.363282-.101562.71875-.21875 1.066406-.355468.019532-.011719.042969-.015626.0625-.027344.382813-.15625.746094-.339844 1.101563-.542969.027344-.011719.054687-.023437.078125-.035156l97.070312-56.046875c1.796876 48.054687 41.445313 86.597656 89.929688 86.597656 49.625 0 90-40.375 90-90s-40.375-90-90-90zm-38.167969 8.507812c-24.421875 11.484376-42.875 33.625-49.328125 60.398438l-94.503906 54.5625v-154.542969l41.164062 23.769531c1.546876.890626 3.273438 1.339844 5 1.339844 1.726563 0 3.453126-.449218 5-1.339844l92.671876-53.503906v69.316406zm-97.667969-36.019531-36.164062-20.882812 143.832031-83.042969 36.167969 20.882812zm-46.164062-38.203125v-154.539062l133.835938 77.269531zm46.164062-192.738281 143.835938 83.042969-36.167969 20.882812-143.832031-83.046875zm-66.164062 38.203125v154.535156l-133.835938-77.269531zm-153.835938 88.8125 143.835938 83.042969-36.164062 20.882812-143.835938-83.042969zm10 70.628906 92.671876 53.503906c1.546874.890626 3.269531 1.339844 5 1.339844 1.726562 0 3.453124-.449218 5-1.339844l41.164062-23.769531v114.539063l-20.539062-11.855469c-4.78125-2.761719-10.898438-1.125-13.660157 3.660156-2.757812 4.78125-1.121093 10.898438 3.660157 13.660157l30.539062 17.628906v16.910156l-143.835938-83.046875zm345.835938 220.808594c-38.597656 0-70-31.402344-70-70s31.402344-70 70-70 70 31.402344 70 70-31.402344 70-70 70zm0 0"/><path d="m61.769531 84.710938c1.6875 0 3.402344-.429688 4.976563-1.335938l.234375-.132812c4.785156-2.753907 6.433593-8.867188 3.679687-13.65625-2.753906-4.785157-8.867187-6.433594-13.65625-3.679688l-.230468.132812c-4.789063 2.753907-6.4375 8.871094-3.683594 13.65625 1.851562 3.214844 5.214844 5.015626 8.679687 5.015626zm0 0"/><path d="m174.578125 337.238281-.207031-.117187c-4.785156-2.761719-10.898438-1.117188-13.65625 3.667968-2.757813 4.78125-1.117188 10.898438 3.667968 13.65625l.203126.117188c1.574218.910156 3.292968 1.339844 4.984374 1.339844 3.460938 0 6.820313-1.796875 8.671876-5.007813 2.761718-4.78125 1.117187-10.898437-3.664063-13.65625zm0 0"/></svg>